<?xml version="1.0" encoding="UTF-8"?>
<svg xmlns="http://www.w3.org/2000/svg" xmlns:xlink="http://www.w3.org/1999/xlink" width="4713" height="3361" viewBox="0 0 4713 3361">
<path fill-rule="evenodd" fill="rgb(100%, 100%, 100%)" fill-opacity="1" d="M 0.339844 0.269531 L 4712.609375 0.269531 L 4712.609375 3360.261719 L 0.339844 3360.261719 L 0.339844 0.269531 "/>
<path fill-rule="evenodd" fill="rgb(97.65625%, 70.896912%, 10.984802%)" fill-opacity="1" d="M 2356.480469 325.679688 C 3104.589844 325.679688 3711.058594 932.148438 3711.058594 1680.269531 C 3711.058594 2428.386719 3104.589844 3034.851562 2356.480469 3034.851562 C 1608.359375 3034.851562 1001.890625 2428.386719 1001.890625 1680.269531 C 1001.890625 932.148438 1608.359375 325.679688 2356.480469 325.679688 "/>
<path fill-rule="evenodd" fill="rgb(98.4375%, 70.506287%, 47.459412%)" fill-opacity="1" d="M 3341.46875 2610.074219 C 3094.5 2871.601562 2744.570312 3034.851562 2356.480469 3034.851562 C 1974.808594 3034.851562 1630.078125 2876.945312 1383.859375 2622.976562 C 1427.539062 2605.773438 1487.800781 2584.65625 1572.039062 2560.257812 C 1810.988281 2491.042969 1980.730469 2471.269531 1980.730469 2471.269531 L 1964.25 2032.921875 C 1964.25 2032.921875 1766.488281 1746.191406 1665.96875 1536.898438 C 1565.449219 1327.621094 1618.179688 1068.890625 1697.28125 981.558594 C 1776.378906 894.21875 1848.890625 913.988281 1848.890625 913.988281 C 1848.890625 913.988281 1820.871094 632.199219 2152.101562 638.789062 C 2483.328125 645.378906 2541.839844 721.179688 2748.648438 703.058594 C 2955.460938 684.929688 2991.71875 649.5 2991.71875 649.5 C 2991.71875 649.5 2887.890625 747.550781 2785.730469 757.441406 C 2683.558594 767.320312 2627.53125 745.898438 2627.53125 745.898438 C 2627.53125 745.898438 2688.5 782.160156 2829.398438 773.089844 C 2970.289062 764.03125 3027.148438 750.019531 3027.148438 750.019531 C 3027.148438 750.019531 2919.199219 919.761719 2844.21875 963.421875 C 2769.25 1007.101562 2733.820312 1011.21875 2733.820312 1011.21875 C 2733.820312 1011.21875 2881.308594 1277.351562 2912.609375 1511.359375 C 2943.929688 1745.359375 2912.609375 1933.21875 2785.71875 2107.898438 C 2658.839844 2282.570312 2487.449219 2259.511719 2487.449219 2259.511719 C 2487.449219 2259.511719 2472.621094 2374.867188 2495.691406 2419.363281 C 2518.519531 2463.375 3046.171875 2444.519531 3341.46875 2610.074219 "/>
<path fill-rule="evenodd" fill="rgb(79.6875%, 55.664062%, 36.083984%)" fill-opacity="1" d="M 1964.609375 2042.71875 L 1964.25 2032.921875 C 1964.25 2032.921875 1781.878906 1768.480469 1678.378906 1562.140625 C 1712.300781 1398.511719 1916.429688 1398.488281 1916.429688 1398.488281 L 1973.300781 1623.421875 C 1973.300781 1623.421875 2048.269531 1962.070312 2237.78125 2130.160156 C 2347.601562 2227.570312 2451.328125 2254.691406 2519.160156 2260.269531 C 2499.339844 2261.109375 2487.449219 2259.511719 2487.449219 2259.511719 C 2487.449219 2259.511719 2486.488281 2266.988281 2485.441406 2278.851562 C 2408.46875 2284.851562 2301.339844 2276.851562 2193.28125 2215.851562 C 2086.53125 2155.589844 2011.730469 2090.839844 1964.609375 2042.71875 "/>
<path fill-rule="evenodd" fill="rgb(52.929688%, 80.859375%, 68.943787%)" fill-opacity="1" d="M 3341.46875 2610.074219 C 3094.5 2871.601562 2744.570312 3034.851562 2356.480469 3034.851562 C 1974.808594 3034.851562 1630.078125 2876.945312 1383.859375 2622.976562 C 1427.539062 2605.773438 1487.800781 2584.65625 1572.039062 2560.257812 C 1692.480469 2525.367188 1795.308594 2503.050781 1867.710938 2489.488281 C 1922.589844 2585.425781 2035.808594 2716.101562 2250.960938 2736.585938 C 2508.28125 2761.101562 2656.238281 2561.5 2715.21875 2457.507812 C 2900.628906 2477.445312 3163.320312 2510.199219 3341.46875 2610.074219 "/>
<path fill-rule="evenodd" fill="rgb(0%, 14.892578%, 24.705505%)" fill-opacity="1" d="M 1964.25 2032.921875 C 1964.25 2032.921875 1766.488281 1746.191406 1665.96875 1536.898438 C 1565.449219 1327.621094 1618.179688 1068.890625 1697.28125 981.558594 C 1776.378906 894.21875 1848.890625 913.988281 1848.890625 913.988281 C 1848.890625 913.988281 1820.871094 632.199219 2152.101562 638.789062 C 2483.328125 645.378906 2541.839844 721.179688 2748.648438 703.058594 C 2955.460938 684.929688 2991.71875 649.5 2991.71875 649.5 C 2991.71875 649.5 2887.890625 747.550781 2785.730469 757.441406 C 2683.558594 767.320312 2627.53125 745.898438 2627.53125 745.898438 C 2627.53125 745.898438 2688.5 782.160156 2829.398438 773.089844 C 2970.289062 764.03125 3027.148438 750.019531 3027.148438 750.019531 C 3027.148438 750.019531 2919.199219 919.761719 2844.21875 963.421875 C 2796.960938 990.949219 2765.421875 1002.761719 2748.558594 1007.730469 C 2745.019531 1008.488281 2741.480469 1009.390625 2737.929688 1010.46875 C 2735.179688 1011.058594 2733.820312 1011.21875 2733.820312 1011.21875 L 2734.050781 1011.640625 C 2638.050781 1040.269531 2451.941406 1072.191406 2446.25 1072.191406 C 2440.480469 1072.191406 2479.210938 1090.320312 2547.589844 1091.96875 C 2615.980469 1093.621094 2700.851562 1085.371094 2700.851562 1085.371094 C 2700.851562 1085.371094 2578.078125 1133.160156 2319.359375 1122.449219 C 2060.628906 1111.738281 2026.859375 1062.308594 2026.859375 1062.308594 C 2026.859375 1062.308594 2044.980469 1176.011719 2003.78125 1282.300781 C 1962.589844 1388.589844 1973.300781 1623.421875 1973.300781 1623.421875 L 1935.390625 1644.839844 C 1935.390625 1644.839844 1923.859375 1514.660156 1882.660156 1481.699219 C 1841.46875 1448.738281 1711.28125 1527.839844 1752.480469 1662.96875 C 1793.679688 1798.101562 1910.679688 1822.820312 1910.679688 1822.820312 L 1964.25 2032.921875 "/>
<path fill-rule="evenodd" fill="rgb(0%, 5.880737%, 12.156677%)" fill-opacity="1" d="M 1964.25 2032.921875 C 1964.25 2032.921875 1766.488281 1746.191406 1665.96875 1536.898438 C 1565.449219 1327.621094 1618.179688 1068.890625 1697.28125 981.558594 C 1776.378906 894.21875 1848.890625 913.988281 1848.890625 913.988281 C 1848.890625 913.988281 1820.871094 632.199219 2152.101562 638.789062 C 2196.859375 639.679688 2236.589844 641.839844 2272.429688 644.859375 C 2227.171875 683.320312 2189.558594 733.839844 2170.21875 800.289062 C 2144.78125 887.640625 2142 997.980469 2149.5 1106.070312 C 2044.238281 1087.738281 2026.859375 1062.308594 2026.859375 1062.308594 C 2026.859375 1062.308594 2044.980469 1176.011719 2003.78125 1282.300781 C 1962.589844 1388.589844 1973.300781 1623.421875 1973.300781 1623.421875 L 1935.390625 1644.839844 C 1935.390625 1644.839844 1923.859375 1514.660156 1882.660156 1481.699219 C 1841.46875 1448.738281 1711.28125 1527.839844 1752.480469 1662.96875 C 1793.679688 1798.101562 1910.679688 1822.820312 1910.679688 1822.820312 L 1964.25 2032.921875 "/>
</svg>
